<?xml version="1.0" encoding="UTF-8"?>
<svg version="1.1" viewBox="0 0 2000 2000" width="500" height="500" xmlns="http://www.w3.org/2000/svg">
<path transform="translate(445,752)" d="m0 0h209l1 1v66l-8 30-14 46-16 54-4 13 1 9 1 2 3 20 6 18 4 5h13l15-4 9-3 4-16 5-9 6-8 10-7 12-5 16-3 53-4 19-3v-53l-2-4-6-1-5 2-1 50-1 1h-98l-1-1v-49l3-17 4-11 7-12 8-8 10-7 15-7 20-5 21-3 12-1h29l19 2 19 4 13 5 13 7 12 10 8 11 5 11 3 12 1 22 1 78 1 1 11-1 1-237 1-1h117l2 1v82l18-4 15-2h24l17 3 10 4 11 8 6 8 5 10 5 17 2 14 1 13 1 52 4 13v6l-2 4-1 12v37l11-3 1-1 1-180 1-10h95l12 13v2h4l8-11 10-6 7-2h11l14 3 2 3v75l-3 2-5-1h-9l-12 3-7 5-4 8-1 5v43l12-6 14-8 15-6 9-2h10l14 3 8 3 16-2 54-2h12v-53l-1-7-3-2h-6l-3 3-1 4-1 46-99 1v-48l2-16 5-15 6-10 9-10 13-9 15-6 16-4 21-3 12-1h31l24 3 19 5 16 8 10 7 9 9 8 13 4 12 2 17v237l-10 1h-89l-4-2-8-20h-2l-6 10-5 5-7 6-10 5-12 3h-24l-15-4-12-6-10-8-7-8-7-13-3-11-1-8v-72l-40 10-1 33v78l-4 2h-115l-2-1-1-58v-27l-13 2-1 20-1 63-2 1h-107l-1-1v-96l-10 4-5 3-1 89-2 1h-105l-1-1v-92l-12-1-2-1v93l-3 2h-98l-6-12-4-9v-2l-3 2-5 9-9 9-10 6-14 4-15 1-15-2-15-5-11-7-8-7-7-10-5-10-3-11-1-6-1-40-1-10-16 7-2 4 1 1 9 2v85l-5 1-113 1-3 4-21 10-13 3-4-1-8-3-8-7-3-5v-2h-37l-1-18v-38l1-16 14-47 15-50 20-66 13-43 5-19 1-5h-64l-1-2v-83zm581 156-3 9-1 7 6-1 4-6v-8l-1-1zm7 41-8 7-5 6v57l7-1 9-4v-63l-1-2zm-256 70-1 5-1 46 1 6 9 1 5-5 1-2v-21l-10-28zm666 11-8 4-2 4v34l1 4 2 1h7l5-3 1-23-1-21z" fill="#ECEED8"/>
<path transform="translate(1433,828)" d="m0 0h31l24 3 19 5 16 8 10 7 9 9 8 13 4 12 2 17v237l-10 1h-89l-4-2-8-20h-2l-6 10-5 5-7 6-10 5-12 3h-24l-15-4-12-6-10-8-7-8-7-13-3-11-1-8v-74l6-2h4l-2 9v11l3 9 5 2 8 3h18l20-4 27-8 15-5h5l1 46h9l4-2 1-23v-11l1-16 5-3 19-8 5-5 1-3v-7l-3-6-2-2h-11l-20 6-12 5-14 6-31 9-16 4h-6l1-4 8-8 6-8 6-10 1-7 2-4-9-1-7-3-6-9v-4l16-2 54-2h12v-53l-1-7-3-2h-6l-3 3-1 4-1 46-99 1v-48l2-16 5-15 6-10 9-10 13-9 15-6 16-4 21-3z" fill="#FA5C5A"/>
<path transform="translate(445,752)" d="m0 0h209l1 1v66l-8 30-14 46-16 54-5 18-7-1h-13l-16 6-27 11-13 5-10 5-2 7 2 8 4 5 2 1h13l1 4 1 6 2 4 6 3 9-1 16-7 8-1-2 7-7 9-24 13-20 13-11 8-10 9-7 6-14 16-7 11-5 12-2 14h-38l-1-18v-38l1-16 14-47 15-50 20-66 13-43 5-19 1-5h-64l-1-2v-83z" fill="#FA5C5A"/>
<path transform="translate(913,752)" d="m0 0h117l2 1v82l18-4 15-2h24l17 3 10 4 11 8 6 8 5 10 5 17 2 14 1 13 1 51-9-1-7-1-10 4-9 7-8 10-6 10-3 6-15 6-29 11-11 4h-4v-64l7-6 11-9 9-9 9-13 5-11 2-8v-13l-4-8-8-6-7-2h-11l-13 4-19 10-12 8-11 8-31 29-9 11-10 11-14 19-14 22-4 2v-235z" fill="#FA5C5A"/>
<path transform="translate(776,828)" d="m0 0h29l19 2 19 4 13 5 13 7 12 10 8 11 5 11 3 12 1 22v79l-1 6-15 6-34 11-25 6h-6l2-4 10-11 8-11 3-7 1-5h2l1-3h-10l-9-4-6-10-7-5-11-3-9-1-1-1-1-54-2-4-6-1-5 2-1 50-1 1h-98l-1-1v-49l3-17 4-11 7-12 8-8 10-7 15-7 20-5 21-3z" fill="#FA5C5A"/>
<path transform="translate(1298,832)" d="m0 0h11l14 3 2 3v75l-3 2-5-1h-9l-12 3-7 5-4 8-1 5-1 40-1 9-4 5-21 8-36 12-34 11-21 6h-5v-180l1-10h95l12 13v2h4l8-11 10-6z" fill="#FA5C5A"/>
<path transform="translate(770,1017)" d="m0 0h5l1 3v56h9l4-4 1-2v-24l4-1 9 2h18l23-5 29-9 20-7h3l2 20v92l-3 2h-98l-6-12-4-9v-2l-3 2-5 9-9 9-10 6-14 4-15 1-15-2-15-5-11-7-8-7-7-10-5-10-3-11-1-6-1-50 4-3 19-6 25-7h9l6 2h11z" fill="#FA5C5A"/>
<path transform="translate(1262,1023)" d="m0 0 7 1 12 4 2 2v108l-4 2h-115l-2-1-1-58v-25l3-3 40-11 38-12z" fill="#FA5C5A"/>
<path transform="translate(1103,1017)" d="m0 0 2 1-8 14-3 7v8l4 8 6 5 3 1h18l19-3h3l-1 81-2 1h-107l-1-1v-95l5-3 36-14z" fill="#FA5C5A"/>
<path transform="translate(938,1035)" d="m0 0 4 1-1 3v15l4 6 6 3h14l16-3 27-8 9-3h3v90l-2 1h-105l-1-1v-92l1-2z" fill="#FB5C5A"/>
<path transform="translate(617,1054)" d="m0 0h39v85l-5 1h-112l1-4 7-7 11-14 6-7 11-15 18-27 3-5 8-4z" fill="#FB5C5A"/>
<path transform="translate(760,958)" d="m0 0h14l-4 5-12 6-30 21-14 6-34 11-8 2h-7l4-16 5-9 6-8 10-7 12-5 16-3z" fill="#FA5C5A"/>
<path transform="translate(1018,963)" d="m0 0h3l-1 57-8 3-22 7-8 2h-4l1-5 5-7 2-12-1-5-12-5h-8l4-4 26-16z" fill="#FA5C5A"/>
<path transform="translate(1049,891)" d="m0 0h3l-1 6-4 6-9 10-4-2-3-2h-5l-4 8-2 12-4 4-14 10-20 13-19 11h-2l2-5 11-13 8-10 8-8 8-7 11-9 22-16z" fill="#FA5C5A"/>
<path transform="translate(1142,991)" d="m0 0h5v39l-9 3-5 1h-7l2-4 6-11 2-12-2-6 4-6z" fill="#FA5E5C"/>
<path transform="translate(538,1095)" d="m0 0 1 3-7 9-15 15-5 1 3-6 8-10 9-8z" fill="#FB5C5A"/>
</svg>
