<?xml version="1.0" standalone="no"?>
<!DOCTYPE svg PUBLIC "-//W3C//DTD SVG 20010904//EN"
 "http://www.w3.org/TR/2001/REC-SVG-20010904/DTD/svg10.dtd">
<svg version="1.0" xmlns="http://www.w3.org/2000/svg"
 width="208.000000pt" height="161.000000pt" viewBox="0 0 208.000000 161.000000"
 preserveAspectRatio="xMidYMid meet">

<g transform="translate(0.000000,161.000000) scale(0.100000,-0.100000)"
fill="#000000" stroke="none">
<path d="M785 1490 c-49 -5 -171 -11 -270 -15 -191 -6 -250 -18 -315 -62 -19
-12 -38 -23 -43 -23 -5 0 -24 -12 -42 -26 -29 -22 -33 -29 -25 -45 15 -26 60
-48 106 -50 42 -1 460 17 632 27 72 5 102 3 102 -5 0 -6 -37 -51 -82 -99 -46
-49 -94 -103 -108 -120 -14 -17 -111 -118 -216 -224 -401 -407 -474 -497 -474
-581 0 -90 74 -107 388 -88 103 6 296 11 429 11 148 0 244 4 248 10 3 5 16 9
28 9 25 -2 89 10 96 17 2 2 -16 4 -40 4 -34 1 -40 3 -27 11 10 5 33 10 52 11
19 1 33 5 30 10 -3 4 -9 8 -14 8 -4 0 -28 18 -51 40 -28 26 -53 40 -69 40 -15
0 -30 3 -34 7 -3 4 -16 8 -27 10 -17 3 -19 -1 -14 -19 6 -21 5 -22 -8 -5 -8 9
-28 17 -46 17 -17 0 -31 4 -31 9 0 10 -442 7 -552 -4 -56 -6 -78 -5 -78 4 0 6
4 11 9 11 5 0 51 46 102 102 51 57 153 168 228 247 75 79 147 155 160 170 13
14 76 80 140 146 64 66 143 151 176 190 33 38 68 79 77 89 26 29 33 82 15 110
-31 47 -80 60 -227 62 -74 1 -175 -2 -225 -6z m188 -67 c-13 -2 -35 -2 -50 0
-16 2 -5 4 22 4 28 0 40 -2 28 -4z m-160 -10 c-7 -2 -19 -2 -25 0 -7 3 -2 5
12 5 14 0 19 -2 13 -5z m412 -11 c-3 -3 -11 0 -18 7 -9 10 -8 11 6 5 10 -3 15
-9 12 -12z m-235 -106 c0 -2 -7 -7 -16 -10 -8 -3 -12 -2 -9 4 6 10 25 14 25 6z
m60 -1 c0 -7 -73 -55 -85 -55 -5 0 2 8 15 17 14 9 31 23 38 30 13 13 32 18 32
8z m70 -15 c0 -5 -5 -10 -11 -10 -5 0 -7 5 -4 10 3 6 8 10 11 10 2 0 4 -4 4
-10z m-30 -25 c0 -2 -10 -10 -22 -16 -21 -11 -22 -11 -9 4 13 16 31 23 31 12z
m-350 -358 c0 -2 -10 -12 -21 -23 -22 -19 -22 -19 -10 4 10 18 31 31 31 19z
m406 -626 c-3 -5 -15 -7 -26 -4 -28 7 -25 13 6 13 14 0 23 -4 20 -9z m-96 -17
c-25 -7 -58 -13 -75 -13 -21 1 -16 4 18 9 27 5 52 11 55 14 3 3 15 6 26 5 12
0 1 -7 -24 -15z"/>
<path d="M1799 889 c-55 -8 -115 -44 -155 -93 l-30 -35 -58 29 c-53 27 -69 30
-152 30 -93 0 -94 0 -127 -34 -25 -25 -37 -49 -47 -94 -12 -60 -8 -135 9 -157
5 -5 14 -26 20 -45 22 -66 123 -202 191 -257 64 -52 90 -64 90 -42 0 8 5 8 15
-1 8 -7 13 -16 10 -20 -3 -4 2 -11 11 -14 26 -10 34 -7 27 12 -6 15 -5 15 10
4 14 -12 17 -11 23 12 3 13 13 27 22 30 10 3 3 4 -15 2 -18 -1 -30 0 -28 4 6
10 -54 131 -85 170 -87 112 -144 217 -134 245 7 17 50 20 87 6 16 -6 29 -23
38 -48 19 -58 37 -81 76 -94 30 -10 39 -9 61 8 14 10 30 37 37 58 17 58 39 97
76 133 46 45 72 42 89 -8 16 -50 1 -131 -35 -184 -23 -34 -23 -36 -5 -36 11 0
20 6 20 13 0 8 9 22 20 32 18 17 30 8 13 -9 -5 -4 -8 -11 -8 -14 0 -12 -85
-96 -85 -84 0 6 5 14 10 17 12 8 13 25 1 25 -8 0 -23 -32 -25 -57 -1 -6 -8
-19 -17 -30 -38 -42 -90 -125 -83 -131 4 -4 9 -1 11 6 3 6 10 12 17 12 7 0 22
13 33 29 24 31 99 75 114 65 5 -3 16 0 24 6 24 20 17 5 -11 -25 -27 -29 -46
-28 -23 2 7 10 1 7 -14 -6 -15 -14 -27 -32 -27 -41 0 -10 -11 -34 -25 -54 -13
-20 -21 -36 -16 -36 5 0 16 10 24 23 8 12 45 53 81 91 168 175 206 293 149
473 -30 94 -92 128 -204 112z m57 -465 c-4 -9 -9 -15 -11 -12 -3 3 -3 13 1 22
4 9 9 15 11 12 3 -3 3 -13 -1 -22z m55 12 c-6 -7 -10 -24 -9 -36 2 -13 -3 -25
-9 -27 -8 -3 -13 4 -13 17 0 27 17 60 32 60 7 0 7 -4 -1 -14z m11 -28 c-7 -7
-12 -8 -12 -2 0 14 12 26 19 19 2 -3 -1 -11 -7 -17z m-57 -37 c-3 -6 -11 -11
-17 -11 -6 0 -6 6 2 15 14 17 26 13 15 -4z m-80 -30 c-3 -6 -14 -11 -23 -11
-15 1 -15 2 2 15 21 16 32 13 21 -4z m35 -51 c0 -5 -2 -10 -4 -10 -3 0 -8 5
-11 10 -3 6 -1 10 4 10 6 0 11 -4 11 -10z"/>
</g>
</svg>
