<?xml version="1.0" standalone="no"?>
<!DOCTYPE svg PUBLIC "-//W3C//DTD SVG 20010904//EN"
 "http://www.w3.org/TR/2001/REC-SVG-20010904/DTD/svg10.dtd">
<svg version="1.0" xmlns="http://www.w3.org/2000/svg"
 width="1500.000000pt" height="1125.000000pt" viewBox="0 0 1500.000000 1125.000000"
 preserveAspectRatio="xMidYMid meet">

<g transform="translate(0.000000,1125.000000) scale(0.100000,-0.100000)"
fill="#000000" stroke="none">
<path d="M0 5625 l0 -5625 7500 0 7500 0 0 5625 0 5625 -7500 0 -7500 0 0
-5625z m9580 2810 c30 -30 360 -776 360 -814 0 -21 -9 -41 -25 -56 l-24 -25
-1844 0 c-1742 0 -1846 1 -1866 18 -30 24 -362 767 -363 810 0 21 8 42 23 58
l22 24 816 3 c449 1 1281 2 1848 2 1022 0 1033 0 1053 -20z m-3955 -239 c7
-11 86 -185 175 -385 125 -283 160 -370 155 -390 -10 -42 -404 -774 -427 -793
-25 -22 -76 -23 -104 -4 -22 16 -354 749 -354 782 0 20 360 704 409 779 14 21
37 42 51 45 33 9 78 -7 95 -34z m2793 -895 c35 -10 46 -19 58 -46 19 -47 12
-63 -105 -224 -53 -75 -173 -242 -266 -371 -93 -129 -178 -243 -189 -252 -20
-16 -91 -18 -1077 -18 -1046 0 -1055 0 -1077 20 -31 29 -38 66 -18 106 29 61
398 749 408 762 6 6 23 15 39 20 16 4 514 9 1107 11 806 2 1088 0 1120 -8z
m1408 -24 c30 -35 31 -75 1 -118 -13 -19 -232 -324 -487 -679 -255 -355 -582
-810 -727 -1012 -241 -335 -267 -368 -301 -378 -25 -8 -182 -10 -480 -8 l-444
3 -24 28 c-39 45 -32 74 43 178 37 52 303 423 592 824 288 402 596 830 683
952 111 154 167 225 186 232 17 6 196 9 480 8 l454 -2 24 -28z m-2190 -1150
c13 -15 24 -41 24 -57 0 -29 0 -28 -515 -745 -1052 -1465 -985 -1374 -1024
-1386 -24 -6 -188 -9 -479 -7 l-444 3 -24 28 c-30 35 -31 75 -1 118 13 19 282
394 598 834 316 440 644 895 727 1012 107 149 160 214 180 222 17 6 192 9 480
8 l454 -2 24 -28z m1595 -1290 c20 -15 39 -51 39 -73 0 -32 -413 -795 -440
-813 -22 -14 -126 -16 -1118 -19 -729 -2 -1106 1 -1131 8 -49 13 -77 62 -61
105 13 34 536 764 564 787 20 16 91 18 1076 17 814 0 1059 -2 1071 -12z m364
-241 c7 -11 86 -185 175 -385 121 -271 161 -370 157 -390 -7 -34 -402 -770
-426 -794 -25 -25 -87 -25 -112 0 -10 10 -93 186 -184 392 -129 290 -165 380
-160 400 6 23 80 165 338 645 65 121 85 150 110 161 37 15 81 3 102 -29z
m-772 -918 c31 -29 360 -768 360 -809 0 -19 -9 -40 -25 -55 l-25 -26 -1847 -1
-1848 -2 -22 25 c-32 38 -356 774 -356 810 0 19 9 40 25 55 l24 25 1845 0
1845 0 24 -22z"/>
</g>
</svg>
